<?xml version="1.0" encoding="UTF-8"?>
<svg xmlns="http://www.w3.org/2000/svg" xmlns:xlink="http://www.w3.org/1999/xlink" width="24px" height="24px" viewBox="0 0 24 24" version="1.1">
<g id="surface1">
<path style="fill:none;stroke-width:7;stroke-linecap:round;stroke-linejoin:round;stroke:rgb(55.686275%,60.784314%,68.235294%);stroke-opacity:1;stroke-miterlimit:4;" d="M 6 38 C 8.734375 36.421875 11.84375 35.585938 15 35.585938 C 18.15625 35.585938 21.265625 36.421875 24 38 C 26.734375 36.421875 29.84375 35.585938 33 35.585938 C 36.15625 35.585938 39.265625 36.421875 42 38 " transform="matrix(0.5,0,0,0.5,0,0)"/>
<path style="fill:none;stroke-width:7;stroke-linecap:round;stroke-linejoin:round;stroke:rgb(55.686275%,60.784314%,68.235294%);stroke-opacity:1;stroke-miterlimit:4;" d="M 6 12 C 8.734375 10.421875 11.84375 9.585938 15 9.585938 C 18.15625 9.585938 21.265625 10.421875 24 12 C 26.734375 10.421875 29.84375 9.585938 33 9.585938 C 36.15625 9.585938 39.265625 10.421875 42 12 " transform="matrix(0.5,0,0,0.5,0,0)"/>
<path style="fill:none;stroke-width:7;stroke-linecap:round;stroke-linejoin:round;stroke:rgb(55.686275%,60.784314%,68.235294%);stroke-opacity:1;stroke-miterlimit:4;" d="M 6 12 L 6 38 " transform="matrix(0.5,0,0,0.5,0,0)"/>
<path style="fill:none;stroke-width:7;stroke-linecap:round;stroke-linejoin:round;stroke:rgb(55.686275%,60.784314%,68.235294%);stroke-opacity:1;stroke-miterlimit:4;" d="M 24 12 L 24 38 " transform="matrix(0.5,0,0,0.5,0,0)"/>
<path style="fill:none;stroke-width:7;stroke-linecap:round;stroke-linejoin:round;stroke:rgb(55.686275%,60.784314%,68.235294%);stroke-opacity:1;stroke-miterlimit:4;" d="M 42 12 L 42 38 " transform="matrix(0.5,0,0,0.5,0,0)"/>
</g>
</svg>
